<?xml version="1.0" standalone="no"?>
<!DOCTYPE svg PUBLIC "-//W3C//DTD SVG 20010904//EN"
 "http://www.w3.org/TR/2001/REC-SVG-20010904/DTD/svg10.dtd">
<svg version="1.0" xmlns="http://www.w3.org/2000/svg"
 width="948.000000pt" height="424.000000pt" viewBox="0 0 948.000000 424.000000"
 preserveAspectRatio="xMidYMid meet">

<g transform="translate(0.000000,424.000000) scale(0.100000,-0.100000)"
fill="#000000" stroke="none">
<path d="M1737 2831 c-14 -21 -33 -54 -42 -72 -9 -19 -29 -56 -46 -84 -16 -27
-40 -72 -55 -100 -14 -27 -38 -70 -54 -95 -16 -25 -38 -63 -49 -85 -11 -22
-33 -62 -49 -90 -15 -27 -43 -77 -62 -110 -18 -33 -41 -71 -50 -85 -10 -14
-25 -41 -34 -60 -9 -19 -30 -57 -46 -85 -16 -27 -41 -72 -55 -100 -14 -27 -35
-65 -46 -82 l-21 -33 504 -1 c721 -2 819 0 844 16 15 10 23 28 28 63 3 27 13
75 22 108 8 32 24 104 35 159 11 55 30 150 43 210 14 61 36 164 50 230 13 66
27 127 30 135 15 38 32 169 24 184 -8 14 -60 16 -477 16 l-468 0 -26 -39z"/>
<path d="M3743 2750 c-128 -33 -179 -68 -296 -197 -131 -145 -177 -263 -177
-451 0 -289 117 -510 307 -582 77 -29 218 -25 306 9 91 36 201 115 267 193
147 175 191 351 141 561 -12 48 -21 101 -21 116 0 47 -35 144 -68 194 -37 52
-135 122 -195 138 -23 5 -62 17 -87 25 -58 18 -89 17 -177 -6z m-83 -141 c-65
-37 -144 -100 -184 -146 -34 -41 -42 -37 -23 8 24 58 104 124 186 154 66 25
78 16 21 -16z m213 -57 c21 -6 48 -18 59 -29 38 -33 90 -124 120 -212 25 -72
31 -107 35 -212 6 -146 -9 -217 -57 -273 -38 -42 -149 -85 -240 -93 -60 -5
-68 -3 -101 23 -49 38 -92 104 -120 184 -19 55 -23 90 -27 235 -5 197 3 239
52 287 63 62 73 68 127 88 55 20 83 20 152 2z m285 -697 c-29 -76 -108 -162
-182 -198 -58 -29 -196 -51 -183 -30 4 6 20 13 36 16 80 16 159 67 250 163 50
52 91 100 91 106 0 6 2 9 5 6 3 -3 -5 -31 -17 -63z"/>
<path d="M5380 2563 c-55 -46 -84 -123 -88 -236 -5 -126 -2 -135 38 -110 40
25 126 144 136 186 3 17 12 41 19 52 7 12 10 40 7 68 -3 38 -8 47 -23 47 -10
0 -19 5 -19 10 0 19 -39 10 -70 -17z"/>
<path d="M8201 2356 l-43 -44 -106 -7 c-189 -12 -336 -77 -455 -199 -185 -190
-211 -311 -101 -456 50 -65 162 -155 239 -191 110 -53 206 -33 345 69 30 23
80 59 110 81 84 60 150 140 150 184 0 28 -25 20 -76 -27 -92 -81 -207 -126
-327 -126 -120 0 -151 17 -265 150 -57 66 -65 85 -53 123 17 51 155 178 255
236 46 26 96 23 171 -10 55 -24 60 -40 47 -145 -10 -88 -8 -100 21 -115 17
-10 27 -4 75 44 53 54 55 57 39 75 -16 17 -16 22 -2 62 8 23 15 51 15 61 0 10
8 33 18 51 14 25 18 55 17 128 0 114 -10 121 -74 56z"/>
<path d="M5725 2286 c-48 -50 -52 -63 -65 -265 -9 -133 -1 -311 20 -470 15
-106 19 -110 74 -58 l36 34 16 -44 c9 -24 23 -43 32 -43 22 0 102 84 102 107
0 11 -9 45 -19 76 -27 79 -43 196 -39 297 l3 84 66 38 c36 21 86 41 110 44 58
8 93 -19 129 -100 54 -121 64 -242 29 -367 -11 -41 -23 -87 -26 -103 -5 -27
-4 -28 20 -23 19 5 26 3 30 -13 3 -11 10 -20 15 -20 6 0 43 28 82 63 l72 62
-7 45 c-4 25 -9 108 -11 185 -7 250 -29 372 -76 422 -18 20 -32 23 -88 23
-100 0 -199 -39 -297 -117 -23 -18 -44 -33 -47 -33 -4 0 -4 29 0 65 7 65 7 65
-18 65 -14 0 -31 -7 -38 -15 -22 -27 -30 -16 -30 45 0 75 -16 79 -75 16z"/>
<path d="M4825 2200 c-28 -11 -79 -42 -113 -70 -34 -27 -64 -50 -67 -50 -3 0
-2 28 2 63 l6 62 -22 -19 c-18 -17 -21 -17 -21 -3 0 22 -9 21 -33 0 -15 -13
-21 -15 -24 -5 -9 24 -41 11 -82 -33 -22 -24 -41 -54 -41 -65 0 -11 -12 -27
-26 -37 -25 -16 -26 -19 -20 -87 4 -39 15 -120 26 -181 10 -60 24 -168 30
-238 15 -177 35 -211 90 -152 32 34 42 31 65 -18 27 -57 55 -60 102 -11 40 43
54 72 43 94 -19 36 -42 141 -37 162 4 13 -6 60 -22 113 -16 49 -32 116 -35
147 l-7 56 45 27 c53 31 155 51 209 41 20 -4 53 -20 71 -36 19 -17 41 -30 50
-30 9 0 16 -8 16 -18 0 -50 35 -33 61 29 16 35 27 49 42 49 18 0 19 4 13 53
-10 76 -32 106 -101 141 -77 38 -151 44 -220 16z"/>
<path d="M6811 2194 c-66 -33 -192 -158 -240 -237 -47 -79 -63 -130 -68 -217
-9 -138 49 -234 182 -299 63 -31 79 -35 204 -43 189 -11 210 -5 321 91 94 81
106 98 140 183 40 102 39 145 -5 255 -46 113 -91 174 -163 220 -77 50 -110 60
-222 67 -89 6 -98 4 -149 -20z m179 -202 c127 -61 230 -177 230 -258 0 -35 -5
-47 -34 -72 -60 -52 -136 -75 -256 -76 -92 -1 -111 2 -150 22 -68 36 -99 70
-116 130 -19 65 -12 112 28 192 44 89 66 103 158 98 57 -4 91 -12 140 -36z"/>
<path d="M8705 2194 c-78 -41 -214 -185 -257 -271 -64 -128 -72 -228 -27 -332
27 -63 82 -114 166 -154 58 -26 81 -31 197 -38 195 -12 216 -6 335 100 88 78
103 101 137 206 28 90 27 123 -13 214 -58 134 -94 182 -178 236 -66 42 -104
52 -220 60 -84 5 -93 3 -140 -21z m175 -201 c82 -37 195 -140 223 -202 35 -79
10 -127 -90 -171 -159 -70 -357 -42 -429 61 -57 83 -36 223 47 311 l38 41 73
-5 c52 -4 92 -14 138 -35z"/>
<path d="M5355 2169 c-62 -51 -73 -67 -84 -122 -8 -43 13 -537 25 -604 5 -26
11 -33 29 -33 13 0 25 -5 27 -12 8 -23 97 23 135 69 l36 44 -18 87 c-14 66
-19 148 -23 340 l-4 254 -24 -5 c-14 -2 -25 1 -28 9 -8 20 -16 17 -71 -27z"/>
<path d="M2150 1299 c-38 -16 -71 -50 -91 -97 -24 -55 -24 -72 2 -132 30 -71
83 -105 163 -105 52 0 67 4 99 29 106 81 98 232 -14 295 -40 23 -115 27 -159
10z"/>
<path d="M910 1266 c0 -3 4 -16 10 -30 l10 -26 535 0 535 0 10 26 c6 14 10 27
10 30 0 2 -250 4 -555 4 -305 0 -555 -2 -555 -4z"/>
<path d="M828 1213 c-8 -10 -25 -38 -37 -63 -23 -48 -42 -82 -78 -142 -30 -49
-29 -51 10 -43 45 10 104 50 127 88 23 37 26 119 7 155 -13 22 -14 22 -29 5z"/>
</g>
</svg>
