<?xml version="1.0" standalone="no"?>
<!DOCTYPE svg PUBLIC "-//W3C//DTD SVG 20010904//EN"
 "http://www.w3.org/TR/2001/REC-SVG-20010904/DTD/svg10.dtd">
<svg version="1.0" xmlns="http://www.w3.org/2000/svg"
 width="160.000000pt" height="72.000000pt" viewBox="0 0 160.000000 72.000000"
 preserveAspectRatio="xMidYMid meet">

<g transform="translate(0.000000,72.000000) scale(0.100000,-0.100000)"
fill="#000000" stroke="none">
<path d="M305 480 c-27 -4 -42 -8 -32 -8 18 -2 17 -3 -1 -29 -27 -38 -66 -117
-61 -123 2 -3 -12 -6 -32 -8 -32 -3 -38 0 -48 25 -10 25 -11 25 -6 3 2 -14 5
-29 5 -35 0 -6 52 -9 143 -7 l144 3 16 77 c25 114 25 112 -30 110 -27 0 -70
-4 -98 -8z"/>
<path d="M614 460 c-12 -5 -25 -14 -29 -20 -6 -9 -2 -9 15 0 16 9 21 9 15 0
-4 -6 -17 -15 -30 -20 -49 -19 -36 -135 18 -154 63 -22 123 34 120 112 -1 37
-7 52 -28 69 -28 24 -46 27 -81 13z m60 -42 c22 -36 25 -118 4 -132 -13 -8
-23 -6 -45 10 -23 17 -29 30 -31 70 -3 37 1 51 14 61 26 19 42 16 58 -9z"/>
<path d="M666 305 c-11 -8 -15 -15 -9 -15 6 0 16 7 23 15 16 19 11 19 -14 0z"/>
<path d="M904 426 c-3 -8 -4 -23 -2 -32 2 -14 6 -12 15 9 8 16 9 29 3 32 -6 4
-13 -1 -16 -9z"/>
<path d="M1353 390 c-80 -19 -113 -72 -72 -116 29 -31 61 -31 96 2 22 20 23
23 6 15 -36 -18 -69 -13 -86 13 -15 22 -14 25 8 46 29 27 57 23 65 -10 3 -14
9 -20 12 -15 11 19 20 75 11 74 -4 -1 -23 -4 -40 -9z"/>
<path d="M967 384 c-4 -4 -7 -35 -7 -69 0 -53 2 -61 20 -62 17 -2 19 4 17 44
-1 34 2 48 15 56 26 17 43 -6 42 -58 -1 -37 2 -43 13 -34 14 12 17 58 7 97 -7
24 -42 30 -62 10 -9 -9 -15 -8 -25 6 -7 9 -16 14 -20 10z"/>
<path d="M810 370 c-8 -5 -22 -7 -31 -5 -26 9 -37 -16 -32 -72 4 -39 10 -52
24 -56 26 -7 29 2 19 48 -11 50 -5 58 36 52 39 -7 55 10 29 30 -22 15 -25 16
-45 3z"/>
<path d="M1130 351 c-36 -35 -39 -74 -8 -95 50 -36 118 -5 118 52 0 31 -21 55
-58 67 -17 5 -29 -1 -52 -24z m68 -21 c37 -35 24 -60 -33 -60 -34 0 -51 25
-37 55 14 30 41 32 70 5z"/>
<path d="M1450 351 c-36 -35 -39 -74 -8 -95 71 -50 163 35 102 94 -35 34 -61
34 -94 1z m68 -21 c37 -35 24 -60 -33 -60 -34 0 -51 25 -37 55 14 30 41 32 70
5z"/>
<path d="M893 355 c-6 -18 2 -103 11 -112 16 -16 25 17 19 70 -6 56 -18 73
-30 42z"/>
<path d="M97 207 c-8 -20 9 -41 27 -34 23 9 21 47 -3 47 -10 0 -21 -6 -24 -13z
m33 -12 c0 -8 -4 -15 -9 -15 -13 0 -22 16 -14 24 11 11 23 6 23 -9z"/>
<path d="M203 213 c26 -2 68 -2 95 0 26 2 4 3 -48 3 -52 0 -74 -1 -47 -3z"/>
<path d="M354 205 c-4 -9 -2 -21 4 -27 15 -15 44 -1 40 19 -4 23 -36 29 -44 8z"/>
</g>
</svg>
